<svg width="24" height="27" viewBox="0 0 24 27" fill="none" xmlns="http://www.w3.org/2000/svg">
  <path d="M12.0268 4.97223C10.6564 4.97223 9.54071 3.85659 9.54071 2.48612C9.54071 1.11565 10.6553 0 12.0268 0C13.3983 0 14.5129 1.11565 14.5129 2.48612C14.5129 3.85659 13.3973 4.97223 12.0268 4.97223ZM12.0268 0.932294C11.1702 0.932294 10.473 1.62944 10.473 2.48612C10.473 3.34279 11.1702 4.03994 12.0268 4.03994C12.8835 4.03994 13.5807 3.34279 13.5807 2.48612C13.5807 1.62944 12.8835 0.932294 12.0268 0.932294Z" fill="#EE5F1D"/>
  <path d="M12.0268 26.8294C10.6564 26.8294 9.54071 25.7138 9.54071 24.3433C9.54071 22.9728 10.6564 21.8572 12.0268 21.8572C13.3973 21.8572 14.5129 22.9728 14.5129 24.3433C14.5129 25.7138 13.3973 26.8294 12.0268 26.8294ZM12.0268 22.7895C11.1702 22.7895 10.473 23.4866 10.473 24.3433C10.473 25.2 11.1702 25.8971 12.0268 25.8971C12.8835 25.8971 13.5807 25.2 13.5807 24.3433C13.5807 23.4866 12.8835 22.7895 12.0268 22.7895Z" fill="#EE5F1D"/>
  <path d="M21.5139 10.4262C20.1434 10.4262 19.0278 9.31054 19.0278 7.94007C19.0278 6.56959 20.1434 5.45395 21.5139 5.45395C22.8844 5.45395 24 6.56959 24 7.94007C24 9.31054 22.8844 10.4262 21.5139 10.4262ZM21.5139 6.38624C20.6572 6.38624 19.9601 7.08339 19.9601 7.94007C19.9601 8.79674 20.6572 9.49389 21.5139 9.49389C22.3706 9.49389 23.0677 8.79674 23.0677 7.94007C23.0677 7.08339 22.3706 6.38624 21.5139 6.38624Z" fill="#EE5F1D"/>
  <path d="M21.5139 21.4034C20.1434 21.4034 19.0278 20.2878 19.0278 18.9173C19.0278 17.5468 20.1434 16.4312 21.5139 16.4312C22.8844 16.4312 24 17.5468 24 18.9173C24 20.2878 22.8844 21.4034 21.5139 21.4034ZM21.5139 17.3635C20.6572 17.3635 19.9601 18.0606 19.9601 18.9173C19.9601 19.774 20.6572 20.4711 21.5139 20.4711C22.3706 20.4711 23.0677 19.774 23.0677 18.9173C23.0677 18.0606 22.3706 17.3635 21.5139 17.3635Z" fill="#EE5F1D"/>
  <path d="M2.5336 21.4034C1.16313 21.4034 0.0474854 20.2878 0.0474854 18.9173C0.0474854 17.5468 1.16313 16.4312 2.5336 16.4312C3.90407 16.4312 5.01972 17.5468 5.01972 18.9173C5.01972 20.2878 3.90407 21.4034 2.5336 21.4034ZM2.5336 17.3635C1.67693 17.3635 0.979779 18.0606 0.979779 18.9173C0.979779 19.774 1.67693 20.4711 2.5336 20.4711C3.39028 20.4711 4.08743 19.774 4.08743 18.9173C4.08743 18.0606 3.39028 17.3635 2.5336 17.3635Z" fill="#EE5F1D"/>
  <path d="M12.0727 8.53053C10.5686 8.53053 9.21989 9.20799 8.3135 10.2729L4.99764 8.35857C5.02043 8.22287 5.03286 8.08303 5.03286 7.94111C5.03286 6.56028 3.91307 5.44049 2.53224 5.44049C1.15141 5.44049 0.0326538 6.55924 0.0326538 7.94007C0.0326538 9.32091 1.15244 10.4407 2.53327 10.4407C3.13201 10.4407 3.68103 10.2304 4.11092 9.87925L7.42782 11.7946C7.23929 12.3167 7.1357 12.8802 7.1357 13.4665C7.1357 16.1888 9.35041 18.4025 12.0717 18.4025C14.7929 18.4025 17.0087 16.1878 17.0087 13.4665C17.0087 10.7452 14.794 8.53053 12.0717 8.53053H12.0727ZM12.0727 17.0569C10.0931 17.0569 8.48338 15.4461 8.48338 13.4675C8.48338 11.489 10.0942 9.87821 12.0727 9.87821C14.0512 9.87821 15.6631 11.489 15.6631 13.4675C15.6631 15.4461 14.0523 17.0569 12.0727 17.0569Z" fill="#009B63"/>
  <path d="M12.4925 18.9763H11.5602V21.2532H12.4925V18.9763Z" fill="#CACCC9"/>
  <path d="M12.4925 5.61136H11.5602V7.88823H12.4925V5.61136Z" fill="#CACCC9"/>
  <path d="M17.06 15.8007L16.5938 16.6081L18.5656 17.7465L19.0318 16.9391L17.06 15.8007Z" fill="#CACCC9"/>
  <path d="M18.5656 9.11861L16.5938 10.257L17.06 11.0644L19.0318 9.926L18.5656 9.11861Z" fill="#CACCC9"/>
  <path d="M6.99221 15.7992L5.02039 16.9377L5.48653 17.7451L7.45836 16.6066L6.99221 15.7992Z" fill="#CACCC9"/>
  <path d="M11.2327 15.2296C11.127 15.2296 11.0203 15.1892 10.9395 15.1084L9.63225 13.8022C9.47065 13.6406 9.47065 13.3785 9.63225 13.2159C9.79384 13.0543 10.0559 13.0543 10.2186 13.2159L11.2348 14.231L13.6877 11.8029C13.8504 11.6423 14.1124 11.6434 14.274 11.806C14.4346 11.9686 14.4336 12.2307 14.2709 12.3923L11.5248 15.1105C11.444 15.1902 11.3383 15.2306 11.2337 15.2306L11.2327 15.2296Z" fill="#009B63"/>
</svg>
